<svg width="36" height="51" viewBox="0 0 36 51" fill="none" xmlns="http://www.w3.org/2000/svg">
<path d="M29.855 21.6H10.445C10.495 21.405 10.53 21.2 10.53 20.99V12.47C10.53 8.35 13.88 5 18 5C22.12 5 25.47 8.35 25.47 12.47V15.435C25.47 16.815 26.59 17.935 27.97 17.935C29.35 17.935 30.47 16.815 30.47 15.435V12.47C30.47 5.595 24.875 0 18 0C11.125 0 5.53 5.595 5.53 12.47V20.99C5.53 21.21 5.57 21.42 5.62 21.625C2.47 21.89 0 24.53 0 27.745V44.25C0 47.645 2.75 50.395 6.145 50.395H29.855C33.25 50.395 36 47.645 36 44.25V27.745C36 24.35 33.25 21.6 29.855 21.6Z" fill="#FF9C66"/>
<path d="M23 33.8794C23 31.1244 20.755 28.8794 18 28.8794C15.245 28.8794 13 31.1244 13 33.8794C13 35.7244 14.01 37.3344 15.5 38.2044V40.9544C15.5 42.3344 16.62 43.4544 18 43.4544C19.38 43.4544 20.5 42.3344 20.5 40.9544V38.2044C21.99 37.3394 23 35.7244 23 33.8794Z" fill="#FFECD1"/>
</svg>
