<svg width="36" height="48" viewBox="0 0 36 48" fill="none" xmlns="http://www.w3.org/2000/svg">
<path d="M30.3842 18.4726C30.4392 18.2675 30.4742 18.0575 30.4742 17.8375V12.4717C30.4742 5.59578 24.8785 0 18.0025 0C11.1265 0 5.53077 5.59578 5.53077 12.4717V17.8375C5.53077 18.0575 5.57077 18.2675 5.62078 18.4726C2.47034 18.7376 0 21.373 0 24.5934V41.1057C0 44.5012 2.75038 47.2516 6.14585 47.2516H29.8541C33.2496 47.2516 36 44.5012 36 41.1057V24.5984C36 21.383 33.5247 18.7426 30.3792 18.4776L30.3842 18.4726ZM10.5315 12.4717C10.5315 8.35116 13.8819 5.00069 18.0025 5.00069C22.1231 5.00069 25.4735 8.35116 25.4735 12.4717V17.8375C25.4735 18.0475 25.5085 18.2525 25.5585 18.4476H10.4465C10.4965 18.2525 10.5315 18.0475 10.5315 17.8375V12.4717Z" fill="#67C5D2"/>
<path d="M23.0033 30.7292C23.0033 27.9738 20.758 25.7285 18.0026 25.7285C15.2473 25.7285 13.002 27.9738 13.002 30.7292C13.002 32.5745 14.0121 34.1847 15.5023 35.0548V37.8052C15.5023 39.1854 16.6225 40.3055 18.0026 40.3055C19.3828 40.3055 20.503 39.1854 20.503 37.8052V35.0548C21.9932 34.1897 23.0033 32.5745 23.0033 30.7292Z" fill="#DBF2F5"/>
</svg>
