<svg width="20" height="20" viewBox="0 0 20 20" fill="none" xmlns="http://www.w3.org/2000/svg">
<path id="Union" fill-rule="evenodd" clip-rule="evenodd" d="M0.343674 17.6279C-0.0468498 18.0184 -0.0468498 18.6515 0.343674 19.0421C0.734199 19.4326 1.36736 19.4326 1.75789 19.0421L9.77833 11.0216L18.2421 19.4854C18.6327 19.8759 19.2658 19.8759 19.6564 19.4854C20.0469 19.0949 20.0469 18.4617 19.6564 18.0712L11.1925 9.60741L18.8712 1.92879C19.2617 1.53826 19.2617 0.905097 18.8712 0.514573C18.4806 0.124048 17.8475 0.124049 17.457 0.514573L9.77833 8.19319L2.54307 0.957932C2.15255 0.567408 1.51938 0.567408 1.12886 0.957932C0.738335 1.34846 0.738336 1.98162 1.12886 2.37215L8.36412 9.60741L0.343674 17.6279Z" fill="black"/>
</svg>
