<svg width="12" height="15" viewBox="0 0 12 15" fill="none" xmlns="http://www.w3.org/2000/svg">
<g id="icn_birth">
<path id="Vector" d="M6.45333 3.585C6.92 3.425 7.26667 2.985 7.32 2.49167C7.35333 2.17833 7.28667 1.885 7.13333 1.645L6.28 0.165C6.15333 -0.055 5.83333 -0.055 5.7 0.165L4.84667 1.645C4.73333 1.845 4.66667 2.07833 4.66667 2.33167C4.66667 3.21167 5.53333 3.89833 6.45333 3.585ZM9.02 10.2783L8.35333 9.61167L7.63333 10.325C6.76667 11.1917 5.24667 11.1983 4.37333 10.325L3.66 9.61167L2.93333 10.325C2.5 10.7583 1.92 10.9983 1.30667 10.9983C0.82 10.9983 0.373333 10.845 0 10.5917V12.9983C0 13.7317 0.6 14.3317 1.33333 14.3317H10.6667C11.4 14.3317 12 13.7317 12 12.9983V10.5917C11.5 10.9317 10.86 11.0917 10.1733 10.9383C9.73333 10.845 9.34 10.5983 9.02 10.2783ZM10 5.665H6.66667H6.45333C6.13379 5.665 6.36667 5.665 6 5.665C5.63333 5.665 6 5.665 5.57978 5.665H5.33333H2C0.893333 5.665 0 6.55833 0 7.665V8.63833C0 9.205 0.333333 9.75167 0.873333 9.93167C1.36 10.0917 1.88667 9.97167 2.22667 9.625L3.65333 8.205L5.07333 9.625C5.58 10.1317 6.41333 10.1317 6.92 9.625L8.34667 8.205L9.76667 9.625C10.0533 9.91167 10.4533 10.045 10.8667 9.99167C11.5267 9.905 11.9933 9.285 11.9933 8.61833V7.67167C12 6.55833 11.1067 5.665 10 5.665Z" fill="#FF9C66"/>
</g>
</svg>
