<svg width="14" height="14" viewBox="0 0 14 14" fill="none" xmlns="http://www.w3.org/2000/svg">
<g id="icn_info">
<path id="Vector" d="M14 7C14 3.13401 10.866 0 7 0C3.13401 0 0 3.13401 0 7C0 10.866 3.13401 14 7 14C10.866 14 14 10.866 14 7Z" fill="#BBBCC0"/>
<g id="Group">
<path id="Vector_2" fill-rule="evenodd" clip-rule="evenodd" d="M6.99995 3.1499C6.41995 3.1499 5.94995 3.6199 5.94995 4.1999C5.94995 4.7799 6.41995 5.2499 6.99995 5.2499C7.57995 5.2499 8.04995 4.7799 8.04995 4.1999C8.04995 3.6199 7.57995 3.1499 6.99995 3.1499Z" fill="white"/>
<path id="Vector_3" d="M7.87999 9.61978V7.15978C7.87999 6.67978 7.48999 6.27979 6.99999 6.27979H6.17999C5.69999 6.27979 5.29999 6.66978 5.29999 7.15978C5.29999 7.64978 5.65999 8.00978 6.11999 8.02978V9.61978C5.63999 9.61978 5.23999 10.0098 5.23999 10.4998C5.23999 10.9898 5.62999 11.3798 6.11999 11.3798H7.86999C8.34999 11.3798 8.74999 10.9898 8.74999 10.4998C8.74999 10.0098 8.35999 9.61978 7.86999 9.61978H7.87999Z" fill="white"/>
</g>
</g>
</svg>
