<svg width="34" height="22" viewBox="0 0 34 22" fill="none" xmlns="http://www.w3.org/2000/svg">
<path fill-rule="evenodd" clip-rule="evenodd" d="M9.66667 0.875C4.8802 0.875 1 4.7552 1 9.54167C1 14.3281 4.8802 18.2083 9.66667 18.2083H14.3334L17 20.8749L19.6666 18.2083H24.3333C29.1198 18.2083 33 14.3281 33 9.54167C33 4.7552 29.1198 0.875 24.3333 0.875H9.66667Z" fill="#021001"/>
<path d="M14.3334 18.2083L14.687 17.8548L14.5405 17.7083H14.3334V18.2083ZM17 20.8749L16.6464 21.2285L17 21.582L17.3535 21.2285L17 20.8749ZM19.6666 18.2083V17.7083H19.4594L19.313 17.8548L19.6666 18.2083ZM1.5 9.54167C1.5 5.03134 5.15634 1.375 9.66667 1.375V0.375C4.60406 0.375 0.5 4.47906 0.5 9.54167H1.5ZM9.66667 17.7083C5.15634 17.7083 1.5 14.052 1.5 9.54167H0.5C0.5 14.6043 4.60406 18.7083 9.66667 18.7083V17.7083ZM14.3334 17.7083H9.66667V18.7083H14.3334V17.7083ZM17.3535 20.5214L14.687 17.8548L13.9798 18.5619L16.6464 21.2285L17.3535 20.5214ZM19.313 17.8548L16.6464 20.5214L17.3535 21.2285L20.0201 18.5619L19.313 17.8548ZM24.3333 17.7083H19.6666V18.7083H24.3333V17.7083ZM32.5 9.54167C32.5 14.052 28.8437 17.7083 24.3333 17.7083V18.7083C29.3959 18.7083 33.5 14.6043 33.5 9.54167H32.5ZM24.3333 1.375C28.8437 1.375 32.5 5.03134 32.5 9.54167H33.5C33.5 4.47906 29.3959 0.375 24.3333 0.375V1.375ZM9.66667 1.375H24.3333V0.375H9.66667V1.375Z" fill="#021001"/>
<path d="M11.7969 4.58862C14.0703 4.58862 15.7461 5.72534 15.7461 7.448C15.7461 9.03589 14.3808 10.0964 12.4414 10.2839V12.2292H16.6601V13.2957H6.98045V12.2292H11.1523V10.2839C9.22459 10.0964 7.85935 9.03589 7.87107 7.448C7.85935 5.72534 9.53514 4.58862 11.7969 4.58862ZM11.7969 5.64331C10.25 5.63159 9.1367 6.33472 9.14842 7.448C9.1367 8.59644 10.25 9.27612 11.7969 9.27612C13.3672 9.27612 14.4687 8.59644 14.4687 7.448C14.4687 6.33472 13.3672 5.63159 11.7969 5.64331ZM25.9062 6.27612V7.31909H18.5937V4.13159H19.8711V6.27612H25.9062ZM27.0195 8.12769V9.17065H17.3398V8.12769H27.0195ZM25.8359 9.90894V12.616H19.8125V13.4363H26.1875V14.4558H18.5V11.6667H24.5469V10.9167H18.4883V9.90894H25.8359Z" fill="white"/>
</svg>
