<svg width="43" height="40" viewBox="0 0 43 40" fill="none" xmlns="http://www.w3.org/2000/svg">
<g id="Group 1">
<path id="Vector" d="M38.1555 9.89453H4.84452C2.16897 9.89453 0 12.0635 0 14.7391V15.6208C0 18.2963 2.16897 20.4653 4.84452 20.4653H38.1555C40.831 20.4653 43 18.2963 43 15.6208V14.7391C43 12.0635 40.831 9.89453 38.1555 9.89453Z" fill="#FFECD1"/>
<path id="Vector_2" d="M2.92163 20.2324H40.0791V34.2864C40.0791 36.9606 37.9088 39.1309 35.2346 39.1309H7.76616C5.09198 39.1309 2.92163 36.9606 2.92163 34.2864V20.2324Z" fill="#FFC4A6"/>
<path id="Vector_3" d="M33.9169 0.742874C33.1612 0.108242 31.8338 -0.221186 29.9105 0.166376C27.7208 0.607228 23.2687 3.72226 21.5052 6.03794C19.737 3.7271 15.28 0.612072 13.0952 0.17122C11.1719 -0.216342 9.84448 0.108242 9.08873 0.747719C3.3625 5.56318 8.29423 9.89903 8.29423 9.89903H16.0358V38.0312C16.0358 39.1164 16.9175 39.9981 18.0027 39.9981H25.003C26.0882 39.9981 26.9699 39.1164 26.9699 38.0312V9.89418H34.7114C34.7114 9.89418 39.6431 5.55833 33.9169 0.742874Z" fill="#FF9C66"/>
</g>
</svg>
