<svg width="24" height="24" viewBox="0 0 24 24" fill="none" xmlns="http://www.w3.org/2000/svg">
<path d="M21 0H3C1.34315 0 0 1.34315 0 3V21C0 22.6569 1.34315 24 3 24H21C22.6569 24 24 22.6569 24 21V3C24 1.34315 22.6569 0 21 0Z" fill="#D6D9DE"/>
<path d="M18.396 17.544C17.676 15.12 15.612 13.332 13.176 12.888C14.964 12.384 16.272 10.74 16.272 8.796C16.272 6.444 14.364 4.536 12.012 4.536C9.66 4.536 7.752 6.444 7.752 8.796C7.752 10.74 9.06 12.384 10.836 12.888C8.376 13.332 6.3 15.144 5.604 17.604C5.472 18.06 5.568 18.552 5.856 18.924C6.144 19.296 6.588 19.512 7.056 19.512L16.98 19.464C17.448 19.464 17.892 19.236 18.18 18.864C18.456 18.48 18.552 18 18.408 17.544H18.396Z" fill="#F3F4F5"/>
</svg>
