<svg width="24" height="24" viewBox="0 0 24 24" fill="none" xmlns="http://www.w3.org/2000/svg">
<path d="M21.3 6.35999H2.7C1.212 6.35999 0 7.57199 0 9.05999V9.55199C0 10.752 0.792 11.772 1.872 12.12H1.632V19.968C1.632 21.456 2.844 22.668 4.332 22.668H19.668C21.156 22.668 22.368 21.456 22.368 19.968V12.12H22.128C23.22 11.772 24 10.752 24 9.55199V9.05999C24 7.57199 22.788 6.35999 21.3 6.35999Z" fill="#F3F4F5"/>
<path d="M18.9239 1.24789C18.5039 0.887889 17.7599 0.707889 16.6919 0.923889C15.4679 1.17589 12.9839 2.90389 11.9999 4.19989C11.0159 2.90389 8.53192 1.16389 7.30792 0.923889C6.22792 0.707889 5.49592 0.887889 5.07592 1.24789C1.88392 3.93589 4.63192 6.35989 4.63192 6.35989H8.95192V22.0559C8.95192 22.6679 9.44392 23.1599 10.0559 23.1599H13.9679C14.5799 23.1599 15.0719 22.6679 15.0719 22.0559V6.35989H19.3919C19.3919 6.35989 22.1399 3.93589 18.9479 1.24789H18.9239Z" fill="#D6D9DE"/>
</svg>
