<svg width="22" height="24" viewBox="0 0 22 24" fill="none" xmlns="http://www.w3.org/2000/svg">
<path d="M7.45996 20.46C7.45996 22.416 9.04396 24 11 24C12.956 24 14.54 22.416 14.54 20.46C14.54 20.436 14.54 20.412 14.54 20.376H7.45996C7.45996 20.376 7.45996 20.424 7.45996 20.46Z" fill="#D6D9DE"/>
<path d="M20.1319 17.532H19.1719V8.172C19.1719 4.02 16.0759 0.6 12.0679 0.072C12.0679 0.072 11.5759 0 11.0239 0C10.4719 0 9.93194 0.072 9.93194 0.072C5.92394 0.6 2.82794 4.02 2.82794 8.172V17.532H1.86794C1.07594 17.532 0.439941 18.168 0.439941 18.96C0.439941 19.752 1.07594 20.388 1.86794 20.388H20.1319C20.9239 20.388 21.5599 19.752 21.5599 18.96C21.5599 18.168 20.9239 17.532 20.1319 17.532Z" fill="#021001"/>
</svg>
