<svg width="22" height="24" viewBox="0 0 22 24" fill="none" xmlns="http://www.w3.org/2000/svg">
<path d="M7.46002 20.46C7.46002 22.416 9.04402 24 11 24C12.956 24 14.54 22.416 14.54 20.46C14.54 20.436 14.54 20.412 14.54 20.376H7.46002C7.46002 20.376 7.46002 20.424 7.46002 20.46Z" fill="#909294"/>
<path d="M7.46002 20.46C7.46002 22.416 9.04402 24 11 24C12.956 24 14.54 22.416 14.54 20.46C14.54 20.436 14.54 20.412 14.54 20.376H7.46002C7.46002 20.376 7.46002 20.424 7.46002 20.46Z" fill="black" fill-opacity="0.2"/>
<path d="M20.132 17.532H19.172V8.172C19.172 4.02 16.076 0.6 12.068 0.072C12.068 0.072 11.576 0 11.024 0C10.472 0 9.932 0.072 9.932 0.072C5.924 0.6 2.828 4.02 2.828 8.172V17.532H1.868C1.076 17.532 0.440002 18.168 0.440002 18.96C0.440002 19.752 1.076 20.388 1.868 20.388H20.132C20.924 20.388 21.56 19.752 21.56 18.96C21.56 18.168 20.924 17.532 20.132 17.532Z" fill="#021001"/>
</svg>
