<svg width="24" height="23" viewBox="0 0 24 23" fill="none" xmlns="http://www.w3.org/2000/svg">
<path d="M21.2961 5.62524H2.70392C1.21059 5.62524 0 6.85839 0 8.37956V8.88084C0 10.402 1.21059 11.6352 2.70392 11.6352H21.2961C22.7894 11.6352 24 10.402 24 8.88084V8.37956C24 6.85839 22.7894 5.62524 21.2961 5.62524Z" fill="#FFECD1"/>
<path d="M1.63037 11.5029H22.3694V19.4932C22.3694 21.0136 21.1581 22.2475 19.6655 22.2475H4.33429C2.84173 22.2475 1.63037 21.0136 1.63037 19.4932V11.5029Z" fill="#FFC4A6"/>
<path d="M18.9302 0.422355C18.5084 0.0615398 17.7676 -0.125753 16.6941 0.0945916C15.4719 0.345234 12.987 2.11626 12.0028 3.43282C11.0159 2.11901 8.52825 0.347988 7.30879 0.0973459C6.23533 -0.122999 5.49446 0.0615398 5.07264 0.425109C1.87661 3.16289 4.6292 5.628 4.6292 5.628H8.95007V21.6223C8.95007 22.2393 9.44218 22.7405 10.0479 22.7405H13.955C14.5607 22.7405 15.0528 22.2393 15.0528 21.6223V5.62525H19.3737C19.3737 5.62525 22.1263 3.16014 18.9302 0.422355Z" fill="#FF9C66"/>
</svg>
