<svg width="24" height="24" viewBox="0 0 24 24" fill="none" xmlns="http://www.w3.org/2000/svg">
<path d="M8.28 0H3C1.34315 0 0 1.34315 0 3V8.04C0 9.69685 1.34315 11.04 3 11.04H8.28C9.93685 11.04 11.28 9.69685 11.28 8.04V3C11.28 1.34315 9.93685 0 8.28 0Z" fill="#021001"/>
<path d="M21 0H15.72C14.0631 0 12.72 1.34315 12.72 3V8.04C12.72 9.69685 14.0631 11.04 15.72 11.04H21C22.6568 11.04 24 9.69685 24 8.04V3C24 1.34315 22.6568 0 21 0Z" fill="#021001"/>
<path d="M8.28 12.96H3C1.34315 12.96 0 14.3032 0 15.96V21C0 22.6569 1.34315 24 3 24H8.28C9.93685 24 11.28 22.6569 11.28 21V15.96C11.28 14.3032 9.93685 12.96 8.28 12.96Z" fill="#021001"/>
<path d="M21 12.96H15.72C14.0631 12.96 12.72 14.3032 12.72 15.96V21C12.72 22.6569 14.0631 24 15.72 24H21C22.6568 24 24 22.6569 24 21V15.96C24 14.3032 22.6568 12.96 21 12.96Z" fill="#021001"/>
</svg>

