<svg xmlns="http://www.w3.org/2000/svg" width="311" height="64" fill="none"><rect width="311" height="64" fill="#fff" fill-opacity=".8" rx="10"/><path stroke="#D6D9DE" stroke-linecap="round" stroke-width="7" d="M33 43h240"/><path fill="#D6D9DE" d="M12.973 16.516V25h-1.301v-7.195h-.047l-2.027 1.324v-1.23l2.109-1.383h1.266Zm5.109 8.601c-1.969 0-3.117-1.582-3.117-4.36 0-2.753 1.172-4.359 3.117-4.359s3.117 1.606 3.117 4.36c0 2.777-1.16 4.36-3.117 4.36Zm0-1.113c1.148 0 1.828-1.125 1.828-3.246 0-2.11-.691-3.27-1.828-3.27s-1.828 1.16-1.828 3.27c0 2.12.68 3.246 1.828 3.246Zm5.66.187-.937 3.235h-.996l.62-3.235h1.313Zm4.324.926c-1.968 0-3.117-1.582-3.117-4.36 0-2.753 1.172-4.359 3.117-4.359 1.946 0 3.118 1.606 3.118 4.36 0 2.777-1.16 4.36-3.118 4.36Zm0-1.113c1.149 0 1.829-1.125 1.829-3.246 0-2.11-.692-3.27-1.829-3.27-1.136 0-1.828 1.16-1.828 3.27 0 2.12.68 3.246 1.828 3.246Zm7.407 1.113c-1.97 0-3.117-1.582-3.117-4.36 0-2.753 1.171-4.359 3.117-4.359 1.945 0 3.117 1.606 3.117 4.36 0 2.777-1.16 4.36-3.117 4.36Zm0-1.113c1.148 0 1.828-1.125 1.828-3.246 0-2.11-.692-3.27-1.828-3.27-1.137 0-1.828 1.16-1.828 3.27 0 2.12.68 3.246 1.828 3.246Zm7.406 1.113c-1.969 0-3.117-1.582-3.117-4.36 0-2.753 1.172-4.359 3.117-4.359s3.117 1.606 3.117 4.36c0 2.777-1.16 4.36-3.117 4.36Zm0-1.113c1.148 0 1.828-1.125 1.828-3.246 0-2.11-.691-3.27-1.828-3.27s-1.828 1.16-1.828 3.27c0 2.12.68 3.246 1.828 3.246Zm12.82-8.496v7.957h-1.113v-1.008h-2.11v-.785h2.11v-6.164h1.113Zm.258 9.363v.902h-7.582v-3.082h1.102v2.18h6.48Zm-9.035-4.57c1.945-.012 4.559-.035 6.797-.317l.07.797c-.896.147-1.84.246-2.766.305v2.05H49.91v-1.991c-1.02.046-1.998.052-2.847.046l-.141-.89Zm3.434-4.395c1.535 0 2.601.739 2.601 1.852s-1.066 1.828-2.602 1.828c-1.558 0-2.613-.715-2.613-1.828s1.055-1.852 2.614-1.852Zm0 .832c-.938-.011-1.57.387-1.56 1.02-.01.62.622 1.008 1.56 1.008.902 0 1.535-.387 1.546-1.008-.011-.633-.644-1.031-1.547-1.02Z"/><circle cx="33" cy="43" r="7" fill="#D6D9DE"/><path fill="#67C5D2" d="M93.762 25.117c-1.758 0-3.012-.949-3.059-2.332h1.313c.046.75.785 1.219 1.734 1.219 1.02 0 1.77-.563 1.77-1.383 0-.832-.704-1.441-1.91-1.441h-.727v-1.055h.726c.961 0 1.641-.54 1.641-1.348 0-.773-.574-1.3-1.477-1.3-.855 0-1.605.468-1.64 1.242H90.89c.035-1.383 1.312-2.32 2.894-2.32 1.664 0 2.719 1.054 2.707 2.308.012.961-.586 1.664-1.5 1.887v.058c1.16.164 1.828.938 1.828 2.016 0 1.418-1.3 2.45-3.058 2.45Zm7.429 0c-1.968 0-3.117-1.582-3.117-4.36 0-2.753 1.172-4.359 3.117-4.359 1.946 0 3.118 1.606 3.118 4.36 0 2.777-1.161 4.36-3.118 4.36Zm0-1.113c1.149 0 1.829-1.125 1.829-3.246 0-2.11-.692-3.27-1.829-3.27-1.136 0-1.828 1.16-1.828 3.27 0 2.12.68 3.246 1.828 3.246Zm5.661.187-.938 3.235h-.996l.621-3.235h1.313Zm4.324.926c-1.969 0-3.117-1.582-3.117-4.36 0-2.753 1.171-4.359 3.117-4.359 1.945 0 3.117 1.606 3.117 4.36 0 2.777-1.16 4.36-3.117 4.36Zm0-1.113c1.148 0 1.828-1.125 1.828-3.246 0-2.11-.692-3.27-1.828-3.27-1.137 0-1.828 1.16-1.828 3.27 0 2.12.679 3.246 1.828 3.246Zm7.406 1.113c-1.969 0-3.117-1.582-3.117-4.36 0-2.753 1.172-4.359 3.117-4.359s3.117 1.606 3.117 4.36c0 2.777-1.16 4.36-3.117 4.36Zm0-1.113c1.148 0 1.828-1.125 1.828-3.246 0-2.11-.691-3.27-1.828-3.27s-1.828 1.16-1.828 3.27c0 2.12.68 3.246 1.828 3.246Zm7.406 1.113c-1.968 0-3.117-1.582-3.117-4.36 0-2.753 1.172-4.359 3.117-4.359 1.946 0 3.117 1.606 3.117 4.36 0 2.777-1.16 4.36-3.117 4.36Zm0-1.113c1.149 0 1.828-1.125 1.828-3.246 0-2.11-.691-3.27-1.828-3.27-1.136 0-1.828 1.16-1.828 3.27 0 2.12.68 3.246 1.828 3.246Zm12.821-8.496v7.957h-1.114v-1.008h-2.109v-.785h2.109v-6.164h1.114Zm.257 9.363v.902h-7.582v-3.082h1.102v2.18h6.48Zm-9.035-4.57c1.946-.012 4.559-.035 6.797-.317l.07.797c-.896.147-1.839.246-2.765.305v2.05h-1.113v-1.991c-1.02.046-1.999.052-2.848.046l-.141-.89Zm3.434-4.395c1.535 0 2.601.739 2.601 1.852s-1.066 1.828-2.601 1.828c-1.559 0-2.613-.715-2.613-1.828s1.054-1.852 2.613-1.852Zm0 .832c-.938-.011-1.57.387-1.559 1.02-.011.62.621 1.008 1.559 1.008.902 0 1.535-.387 1.547-1.008-.012-.633-.645-1.031-1.547-1.02Z"/><circle cx="115.5" cy="43" r="7" fill="#67C5D2"/><path fill="#D6D9DE" d="M248.973 16.516V25h-1.301v-7.195h-.047l-2.027 1.324v-1.23l2.109-1.383h1.266Zm5.168 8.601c-1.758 0-3.012-.949-3.059-2.332h1.313c.046.75.785 1.219 1.734 1.219 1.019 0 1.769-.563 1.769-1.383 0-.832-.703-1.441-1.91-1.441h-.726v-1.055h.726c.961 0 1.641-.54 1.641-1.348 0-.773-.574-1.3-1.477-1.3-.855 0-1.605.468-1.64 1.242h-1.242c.035-1.383 1.312-2.32 2.894-2.32 1.664 0 2.719 1.054 2.707 2.308.012.961-.586 1.664-1.5 1.887v.058c1.16.164 1.828.938 1.828 2.016 0 1.418-1.301 2.45-3.058 2.45Zm7.429 0c-1.968 0-3.117-1.582-3.117-4.36 0-2.753 1.172-4.359 3.117-4.359 1.946 0 3.118 1.606 3.118 4.36 0 2.777-1.161 4.36-3.118 4.36Zm0-1.113c1.149 0 1.828-1.125 1.828-3.246 0-2.11-.691-3.27-1.828-3.27-1.136 0-1.828 1.16-1.828 3.27 0 2.12.68 3.246 1.828 3.246Zm5.66.187-.937 3.235h-.996l.621-3.235h1.312Zm4.325.926c-1.969 0-3.117-1.582-3.117-4.36 0-2.753 1.171-4.359 3.117-4.359 1.945 0 3.117 1.606 3.117 4.36 0 2.777-1.16 4.36-3.117 4.36Zm0-1.113c1.148 0 1.828-1.125 1.828-3.246 0-2.11-.692-3.27-1.828-3.27-1.137 0-1.828 1.16-1.828 3.27 0 2.12.679 3.246 1.828 3.246Zm7.406 1.113c-1.969 0-3.117-1.582-3.117-4.36 0-2.753 1.172-4.359 3.117-4.359s3.117 1.606 3.117 4.36c0 2.777-1.16 4.36-3.117 4.36Zm0-1.113c1.148 0 1.828-1.125 1.828-3.246 0-2.11-.691-3.27-1.828-3.27s-1.828 1.16-1.828 3.27c0 2.12.679 3.246 1.828 3.246Zm7.406 1.113c-1.969 0-3.117-1.582-3.117-4.36 0-2.753 1.172-4.359 3.117-4.359s3.117 1.606 3.117 4.36c0 2.777-1.16 4.36-3.117 4.36Zm0-1.113c1.149 0 1.828-1.125 1.828-3.246 0-2.11-.691-3.27-1.828-3.27s-1.828 1.16-1.828 3.27c0 2.12.68 3.246 1.828 3.246Zm12.821-8.496v7.957h-1.114v-1.008h-2.109v-.785h2.109v-6.164h1.114Zm.257 9.363v.902h-7.582v-3.082h1.102v2.18h6.48Zm-9.035-4.57c1.945-.012 4.559-.035 6.797-.317l.07.797c-.896.147-1.839.246-2.765.305v2.05h-1.114v-1.991a53.959 53.959 0 0 1-2.847.046l-.141-.89Zm3.434-4.395c1.535 0 2.601.739 2.601 1.852s-1.066 1.828-2.601 1.828c-1.559 0-2.614-.715-2.614-1.828s1.055-1.852 2.614-1.852Zm0 .832c-.938-.011-1.571.387-1.559 1.02-.012.62.621 1.008 1.559 1.008.902 0 1.535-.387 1.547-1.008-.012-.633-.645-1.031-1.547-1.02Z"/><circle cx="273" cy="43" r="7" fill="#D6D9DE"/></svg>
