<svg xmlns="http://www.w3.org/2000/svg" width="64" height="64" fill="none"><circle cx="32" cy="32" r="32" fill="#FFECD1"/><path fill="#FF9C66" d="M39.903 28.753h-12.94c.034-.125.057-.257.057-.392v-5.48c0-2.65 2.233-4.805 4.98-4.805 2.747 0 4.98 2.154 4.98 4.805v1.907c0 .887.747 1.608 1.667 1.608s1.666-.72 1.666-1.608V22.88c0-4.423-3.73-8.022-8.313-8.022s-8.313 3.6-8.313 8.022v5.48c0 .142.026.277.06.409-2.1.17-3.747 1.868-3.747 3.936v10.617c0 2.184 1.833 3.953 4.097 3.953h15.806c2.264 0 4.097-1.77 4.097-3.953V32.706c0-2.184-1.833-3.953-4.097-3.953Z"/><path fill="#FFECD1" d="M35.333 36.648c0-1.772-1.496-3.216-3.333-3.216-1.837 0-3.333 1.444-3.333 3.216 0 1.187.673 2.222 1.666 2.782v1.769c0 .888.747 1.608 1.667 1.608s1.667-.72 1.667-1.608v-1.77c.993-.556 1.666-1.594 1.666-2.781Z"/></svg>
