<svg xmlns="http://www.w3.org/2000/svg" width="64" height="64" fill="none"><circle cx="32" cy="32" r="32" fill="#DBF2F5"/><path fill="#72D3E4" d="M40.256 28.029c.037-.132.06-.267.06-.409V24.17c0-4.423-3.73-8.023-8.314-8.023s-8.315 3.6-8.315 8.023v3.451c0 .142.027.277.06.409-2.1.17-3.747 1.866-3.747 3.937v10.621c0 2.185 1.834 3.954 4.097 3.954h15.806c2.263 0 4.097-1.77 4.097-3.953V31.968c0-2.068-1.65-3.766-3.747-3.937l.003-.003Zm-13.235-3.86c0-2.65 2.234-4.806 4.98-4.806 2.748 0 4.981 2.155 4.981 4.806v3.451c0 .136.024.267.057.393H26.964c.034-.126.057-.258.057-.393V24.17Z"/><path fill="#DBF2F5" d="M35.336 35.91c0-1.772-1.497-3.217-3.334-3.217s-3.334 1.445-3.334 3.217c0 1.187.673 2.223 1.667 2.783v1.769c0 .887.747 1.608 1.667 1.608s1.667-.72 1.667-1.608v-1.77c.993-.556 1.667-1.595 1.667-2.782Z"/></svg>
