<svg xmlns="http://www.w3.org/2000/svg" width="43" height="40" fill="none"><path fill="#FFECD1" d="M38.156 9.895H4.845A4.845 4.845 0 0 0 0 14.739v.882a4.845 4.845 0 0 0 4.845 4.844h33.31A4.845 4.845 0 0 0 43 15.621v-.882a4.845 4.845 0 0 0-4.844-4.844Z"/><path fill="#FFC4A6" d="M2.922 20.232h37.157v14.054a4.846 4.846 0 0 1-4.845 4.845H7.766a4.846 4.846 0 0 1-4.844-4.845V20.232Z"/><path fill="#FF9C66" d="M33.917.743C33.16.108 31.834-.221 29.91.166c-2.19.441-6.641 3.556-8.405 5.872C19.737 3.728 15.28.612 13.095.17 11.172-.216 9.845.108 9.09.748c-5.727 4.815-.795 9.151-.795 9.151h7.742v28.132c0 1.085.881 1.967 1.967 1.967h7a1.968 1.968 0 0 0 1.967-1.967V9.894h7.741s4.932-4.336-.794-9.151Z"/></svg>
