<svg width="32" height="32" viewBox="0 0 32 32" fill="none" xmlns="http://www.w3.org/2000/svg">
<path d="M18.4615 2.46154C18.4615 1.1 17.3615 0 16 0C14.6384 0 13.5384 1.1 13.5384 2.46154V13.5385H2.46152C1.09998 13.5385 -1.52588e-05 14.6385 -1.52588e-05 16C-1.52588e-05 17.3615 1.09998 18.4615 2.46152 18.4615H13.5384V29.5385C13.5384 30.9 14.6384 32 16 32C17.3615 32 18.4615 30.9 18.4615 29.5385V18.4615H29.5384C30.9 18.4615 32 17.3615 32 16C32 14.6385 30.9 13.5385 29.5384 13.5385H18.4615V2.46154Z" fill="#D6D9DE"/>
</svg>
