<svg width="43" height="40" viewBox="0 0 43 40" fill="none" xmlns="http://www.w3.org/2000/svg">
<g id="Group 1">
<path id="Vector" d="M38.1555 9.89453H4.84452C2.16897 9.89453 0 12.0635 0 14.7391V15.6208C0 18.2963 2.16897 20.4653 4.84452 20.4653H38.1555C40.831 20.4653 43 18.2963 43 15.6208V14.7391C43 12.0635 40.831 9.89453 38.1555 9.89453Z" fill="#FFECD1"/>
<path id="Vector_2" d="M2.92139 20.2324H40.0789V34.2864C40.0789 36.9606 37.9085 39.1309 35.2344 39.1309H7.76591C5.09173 39.1309 2.92139 36.9606 2.92139 34.2864V20.2324Z" fill="#FFC4A6"/>
<path id="Vector_3" d="M33.9167 0.742874C33.1609 0.108242 31.8335 -0.221186 29.9103 0.166376C27.7205 0.607228 23.2684 3.72226 21.505 6.03794C19.7368 3.7271 15.2798 0.612072 13.0949 0.17122C11.1716 -0.216342 9.84423 0.108242 9.08849 0.747719C3.36226 5.56318 8.29398 9.89903 8.29398 9.89903H16.0355V38.0312C16.0355 39.1164 16.9172 39.9981 18.0024 39.9981H25.0027C26.0879 39.9981 26.9696 39.1164 26.9696 38.0312V9.89418H34.7112C34.7112 9.89418 39.6429 5.55833 33.9167 0.742874Z" fill="#FF9C66"/>
</g>
</svg>
